<svg width="40" height="40" viewBox="0 0 40 40" fill="none" xmlns="http://www.w3.org/2000/svg">
<path d="M27.7867 23.4356C27.8489 23.4133 27.9156 23.3867 27.9867 23.3467V28H12V19.76H12.8L12.9467 19.3644H13.2356L13.3822 19.76H19.6222V19.3511L19.9333 19.76H21.6533V19.5556C21.6978 19.5822 21.7467 19.6133 21.7867 19.6356C21.8311 19.6578 21.8844 19.68 21.9333 19.6933C21.9956 19.7156 22.0533 19.7289 22.1156 19.7378C22.2133 19.7511 22.3067 19.7644 22.4044 19.7644H23.4356L23.5822 19.3689H23.8667L24.0133 19.7644H25.7378V19.3556L26.0133 19.7644H27.2178V16.9689H25.9378V17.4133L25.6533 16.9689H24.5378V17.5333L24.2844 16.9689H22.4444C22.36 16.9689 22.2756 16.9778 22.1911 16.9911C22.12 17 22.0489 17.0178 21.9867 17.0356C21.9378 17.0489 21.8889 17.0711 21.84 17.0978C21.7822 17.1244 21.7289 17.1556 21.6711 17.1911V16.9733H15.6444L15.4756 17.4533L15.3067 16.9733H13.9067V17.5467L13.6533 16.9733H12.5022L12 18.1422V12H27.9867V20.7156H18.0711L17.8178 21.0756L17.5644 20.7156H14.7111V23.5111H17.5556L17.8044 23.1511L18.0578 23.5111H19.8311V22.9111H19.8178C20.0222 22.9111 20.2267 22.8756 20.4178 22.8044V23.5111H21.6578V23.1067L21.9689 23.5111H27.36C27.5067 23.5111 27.6444 23.4844 27.7867 23.4356ZM24.3289 21.5556V21.1733H22.8222V23.0622H24.3289V22.68H23.2756V22.2978H24.3156V21.9156H23.2844V21.5556H24.3289ZM25.5956 22.6844C25.5822 22.6844 25.5822 22.6844 25.5733 22.6844H24.6044V23.0667H25.56C25.9644 23.0667 26.2089 22.8178 26.2089 22.4667C26.2089 22.1289 25.9911 21.9289 25.6222 21.9289H25.1911C25.0933 21.9378 25.0133 21.8667 25.0089 21.7644C25.0089 21.7556 25.0089 21.7511 25.0089 21.7422C25 21.6444 25.0711 21.56 25.1778 21.56C25.1867 21.56 25.1867 21.56 25.2 21.56H26.0133L26.1822 21.1778H25.2133C24.8089 21.1778 24.5644 21.4267 24.5644 21.7644C24.5644 22.1111 24.7911 22.3111 25.1511 22.3111H25.5822C25.68 22.3022 25.76 22.3733 25.7644 22.4756C25.7644 22.4844 25.7644 22.4889 25.7644 22.4978C25.7733 22.5911 25.6933 22.6756 25.5956 22.6844ZM27.3867 22.6844C27.3778 22.6844 27.3778 22.6844 27.3644 22.6844H26.3956V23.0667H27.3511C27.76 23.0667 28 22.8178 28 22.4667C28 22.1289 27.7822 21.9289 27.4133 21.9289H26.9822C26.8844 21.9378 26.8044 21.8667 26.8 21.7644C26.8 21.7556 26.8 21.7511 26.8 21.7422C26.7911 21.6444 26.8622 21.56 26.9644 21.56C26.9733 21.56 26.9733 21.56 26.9867 21.56H27.8089L27.9778 21.1778H27.0089C26.6044 21.1778 26.36 21.4267 26.36 21.7644C26.36 22.1111 26.5867 22.3111 26.9467 22.3111H27.3778C27.4756 22.3022 27.56 22.3733 27.56 22.4756C27.56 22.4844 27.56 22.4889 27.56 22.4978C27.56 22.5911 27.4844 22.6756 27.3867 22.6844ZM17.2978 23.0578L17.7644 22.4489L18.2222 23.0578H18.7867L18.0311 22.1111L18.7822 21.1778H18.2311L17.7733 21.7733L17.3156 21.1778H16.7511L17.5022 22.12L16.7511 23.0622H17.2978V23.0578ZM21.9867 22.3644L22.6089 23.0578H22.0489L21.4889 22.3778H21.2756H21.2667V23.0667H20.8133V21.1822H21.84C22.2356 21.1822 22.4889 21.4222 22.4889 21.7778C22.4978 22.0756 22.3111 22.3022 21.9867 22.3644ZM22.0578 21.7911C22.0578 21.6622 21.9733 21.5556 21.8089 21.5556H21.2711V22.0222H21.8089C21.9733 22.0267 22.0578 21.92 22.0578 21.7911ZM16.6622 21.5556V21.1733H15.1556V23.0622H16.6622V22.68H15.6089V22.2978H16.64V21.9156H15.6089V21.5556H16.6622ZM19.92 21.1822C20.3156 21.1822 20.5689 21.4356 20.5689 21.8133C20.5689 22.1733 20.3156 22.4444 19.9022 22.4444H19.3378V23.0667H18.8889V21.1778L19.92 21.1822ZM19.88 21.5733H19.3422V22.04H19.8889C19.8978 22.04 19.9111 22.04 19.9156 22.04C20.0356 22.0311 20.1289 21.9289 20.12 21.8044C20.12 21.68 20.0444 21.5778 19.88 21.5733ZM22.6533 19.3067L23.4578 17.4222H24.0578L24.8578 19.3067H24.3467L24.1822 18.9022H23.2889L23.1333 19.3067H22.6533ZM23.4311 18.5422H24.04L23.8711 18.1244L23.7378 17.7689L23.6044 18.1244L23.4311 18.5422ZM25.5244 17.4178H24.9733V19.3022H25.4133V18.1778H25.4044L25.3956 18.0222L25.4933 18.1778L26.2133 19.3022H26.7422V17.4178H26.2978V18.5067L26.3067 18.6489L26.2311 18.5067L25.5244 17.4178ZM21.4978 18.3556V18.3822C21.5067 18.9333 21.8311 19.2933 22.3733 19.3022H22.4L22.5822 18.9067H22.4489C22.1378 18.9067 21.9556 18.7156 21.9556 18.3822V18.3556C21.9556 18.0578 22.12 17.84 22.4356 17.84H22.9244V17.4311H22.4C21.8178 17.4311 21.4978 17.8178 21.4978 18.3556ZM20.7689 17.4222V19.3067H21.2222V17.4222H20.7689ZM12.6489 18.9022L12.4889 19.3067H12.0089L12.8222 17.4222H13.4178L14.2178 19.3067H13.7067L13.5511 18.9022H12.6489ZM12.7867 18.5422H13.3956L13.2267 18.1244L13.0933 17.7689L12.96 18.1244L12.7867 18.5422ZM16.1867 19.2978H16.6267V17.4133H15.8267L15.4667 18.7422L15.1067 17.4133H14.3111V19.2978H14.7511V18.0178H14.76L14.7467 17.5067L15.2711 19.3067H15.68L16.2044 17.5156L16.1911 18.0133V19.2978H16.1867ZM20.0089 18.6044L20.6311 19.2978H20.0667L19.5067 18.6178H19.2933L19.3022 19.3067H18.8489V17.4222H19.8667C20.2622 17.4222 20.5156 17.6622 20.5156 18.0178C20.5156 18.3156 20.3333 18.5422 20.0089 18.6044ZM20.0711 18.04C20.0711 17.9111 19.9867 17.8044 19.8222 17.8044H19.2933V18.2711H19.8222C19.9867 18.2711 20.0711 18.1644 20.0711 18.04ZM18.5022 17.8V17.4178H16.9956V19.3022H18.5022V18.92H17.44V18.5467H18.4711V18.1644H17.44V17.8089L18.5022 17.8Z" fill="white"/>
</svg>
