<svg width="40" height="40" viewBox="0 0 40 40" fill="none" xmlns="http://www.w3.org/2000/svg">
<path d="M13.5517 16.9447C13.267 17.2691 12.9418 17.4122 12.5758 17.374C12.5352 17.0496 12.6572 16.7443 12.9418 16.458C13.1857 16.1718 13.5008 16.0191 13.8871 16C13.9277 16.3435 13.8159 16.6584 13.5517 16.9447ZM13.8871 17.4599C14.4157 17.4981 14.8121 17.6985 15.0764 18.0611C15.0764 18.0611 15.0662 18.0611 15.0459 18.0611C14.5783 18.3473 14.3547 18.729 14.375 19.2061C14.375 19.3015 14.3852 19.3969 14.4055 19.4924C14.4258 19.5878 14.4512 19.6689 14.4817 19.7357C14.5122 19.8025 14.5478 19.8693 14.5884 19.9361C14.6291 20.0029 14.6748 20.0601 14.7257 20.1078C14.7765 20.1555 14.8222 20.1985 14.8629 20.2366C14.9036 20.2748 14.9493 20.3034 15.0001 20.3225C15.0509 20.3416 15.0916 20.3607 15.1221 20.3798C15.1526 20.3989 15.178 20.4132 15.1983 20.4227C15.2187 20.4323 15.2288 20.437 15.2288 20.437C15.1678 20.7042 15.0255 20.9905 14.8019 21.2958C14.436 21.792 14.1005 22.0401 13.7956 22.0401C13.6533 22.0401 13.4805 22.0019 13.2772 21.9256C13.0739 21.8492 12.8909 21.8111 12.7283 21.8111C12.5657 21.8111 12.3827 21.8492 12.1794 21.9256C11.9761 22.0019 11.8135 22.0401 11.6915 22.0401C11.3866 22.0592 11.041 21.8015 10.6547 21.2672C10.3498 20.8473 10.1465 20.3655 10.0448 19.8216C9.9432 19.2777 10.0143 18.7481 10.2583 18.2328C10.5632 17.7366 11.0003 17.479 11.5695 17.4599C11.6915 17.4599 11.8237 17.4838 11.966 17.5315C12.1083 17.5792 12.2404 17.6269 12.3624 17.6746C12.4844 17.7223 12.5758 17.7462 12.6368 17.7462C12.6978 17.7462 12.8706 17.6937 13.1552 17.5887C13.4398 17.4838 13.6838 17.4408 13.8871 17.4599ZM16.9365 16.4294H19.1625C19.5488 16.4294 19.8893 16.5057 20.1841 16.6584C20.4789 16.8111 20.7127 17.0258 20.8855 17.3025C21.0583 17.5792 21.1447 17.8989 21.1447 18.2615C21.1447 18.7958 20.9566 19.2347 20.5805 19.5782C20.2044 19.9218 19.7216 20.0935 19.132 20.0935H17.8513V21.9828H16.9365V16.4294ZM17.8513 17.145V19.3492H18.9186C19.3252 19.3492 19.6403 19.2538 19.8639 19.063C20.0875 18.8721 20.1993 18.6002 20.1993 18.2471C20.1993 17.8941 20.0875 17.6221 19.8639 17.4313C19.6403 17.2405 19.3252 17.145 18.9186 17.145H17.8513ZM22.8218 22.0401C22.3949 22.0401 22.0442 21.9303 21.7698 21.7109C21.4953 21.4914 21.3581 21.2004 21.3581 20.8378C21.3581 20.1126 21.907 19.7118 23.0048 19.6355L24.1636 19.5782V19.2634C24.1636 18.8053 23.8688 18.5763 23.2792 18.5763C22.771 18.5763 22.4762 18.7672 22.3949 19.1489H21.5716C21.5716 18.9008 21.6478 18.6813 21.8003 18.4905C21.9527 18.2996 22.1611 18.1517 22.4254 18.0468C22.6897 17.9418 22.9845 17.8893 23.3097 17.8893C23.8383 17.8893 24.2601 18.0086 24.5752 18.2471C24.8903 18.4857 25.0479 18.8053 25.0479 19.2061V21.9828H24.194V21.3244H24.1636C23.8993 21.8015 23.452 22.0401 22.8218 22.0401ZM23.0658 21.3817C23.3707 21.3817 23.6299 21.2958 23.8434 21.124C24.0568 20.9523 24.1636 20.7424 24.1636 20.4943V20.1794L23.1268 20.2366C22.5372 20.2557 22.2424 20.4466 22.2424 20.8092C22.2424 20.9237 22.278 21.0239 22.3492 21.1097C22.4203 21.1956 22.5169 21.2624 22.6389 21.3101C22.7608 21.3578 22.9031 21.3817 23.0658 21.3817ZM26.1762 23.5C26.0135 23.5 25.9017 23.5 25.8407 23.5V22.813C25.9424 22.8321 26.0339 22.8416 26.1152 22.8416C26.5014 22.8416 26.7555 22.6508 26.8775 22.2691L26.969 22.0115L25.4138 17.9466H26.3591L27.4569 21.2385H27.4874L28.5547 17.9466H29.5L27.8838 22.2118C27.7009 22.708 27.4874 23.0468 27.2434 23.2281C26.9995 23.4094 26.6437 23.5 26.1762 23.5Z" fill="white"/>
</svg>
