<svg width="40" height="40" viewBox="0 0 40 40" fill="none" xmlns="http://www.w3.org/2000/svg">
<path d="M18.52 20.02C18.52 18.905 19.425 18 20.54 18C21.655 18 22.56 18.905 22.56 20.02C22.56 21.135 21.655 22.04 20.54 22.04C19.425 22.04 18.52 21.135 18.52 20.02Z" fill="url(#paint0_linear_2414_171317)"/>
<path d="M14.35 20.79C14.35 20.63 14.28 20.49 14.13 20.395C14.06 20.35 13.91 20.285 13.62 20.175C12.92 19.925 12.68 19.66 12.68 19.135C12.68 18.515 13.19 18.04 13.87 18.04C14.29 18.04 14.67 18.19 14.985 18.46L14.595 18.97C14.4 18.75 14.225 18.665 14 18.665C13.675 18.665 13.45 18.84 13.45 19.085C13.45 19.285 13.58 19.4 14.025 19.565C14.865 19.88 15.115 20.155 15.115 20.755C15.115 21.49 14.57 22 13.81 22C13.245 22 12.84 21.78 12.49 21.28L12.97 20.82C13.14 21.15 13.425 21.33 13.78 21.33C14.105 21.32 14.35 21.095 14.35 20.79ZM11.465 18.105V21.9H12.21V18.105H11.465ZM17.345 18.71C17.7 18.71 17.965 18.835 18.275 19.135V18.26C17.955 18.085 17.675 18.02 17.365 18.02C16.24 18.02 15.35 18.9 15.345 20.01C15.345 21.125 16.22 21.99 17.35 21.99C17.67 21.99 17.94 21.93 18.28 21.77V20.895C17.98 21.185 17.72 21.31 17.38 21.31C16.635 21.31 16.105 20.77 16.105 20.005C16.1 19.28 16.65 18.71 17.345 18.71ZM25.975 18.105H25.175L24.145 20.66L23.135 18.105H22.325L23.935 22H24.33L25.975 18.105ZM30.485 20.305L31.68 21.905H30.77L29.74 20.38H29.645V21.9H28.9V18.105H30C30.85 18.105 31.34 18.52 31.34 19.23C31.345 19.805 31.035 20.19 30.485 20.305ZM30.58 19.275C30.58 18.905 30.33 18.71 29.87 18.71H29.645V19.865H29.865C30.335 19.86 30.585 19.65 30.58 19.275ZM32 18.31C32 18.47 31.87 18.6 31.71 18.6C31.55 18.6 31.42 18.47 31.42 18.31C31.42 18.15 31.55 18.02 31.71 18.02C31.87 18.02 32 18.15 32 18.31ZM31.945 18.305C31.945 18.17 31.84 18.065 31.71 18.065C31.58 18.065 31.475 18.175 31.475 18.305C31.475 18.44 31.58 18.545 31.71 18.545C31.84 18.545 31.94 18.44 31.945 18.305ZM8 21.9V18.105H9.095C10.29 18.105 11.13 18.89 11.13 20.01C11.13 20.565 10.88 21.11 10.445 21.465C10.08 21.765 9.66 21.9 9.085 21.9H8ZM8.745 21.26H8.945C9.425 21.26 9.72 21.17 9.955 20.96C10.205 20.73 10.37 20.37 10.37 20.01C10.37 19.645 10.215 19.29 9.955 19.065C9.715 18.845 9.425 18.76 8.945 18.76H8.745V21.26ZM31.745 18.345L31.855 18.48H31.76L31.665 18.35V18.48H31.58V18.145H31.685C31.77 18.145 31.815 18.185 31.815 18.25C31.825 18.3 31.8 18.33 31.745 18.345ZM31.75 18.255C31.75 18.23 31.73 18.215 31.69 18.215H31.67V18.305H31.69C31.73 18.3 31.745 18.28 31.75 18.255ZM28.42 18.75V18.105H26.32V21.91H28.42V21.26H27.06V20.23H28.365V19.585H27.06V18.745H28.42V18.75Z" fill="white"/>
<defs>
<linearGradient id="paint0_linear_2414_171317" x1="21.8434" y1="21.5688" x2="19.2443" y2="18.4713" gradientUnits="userSpaceOnUse">
<stop stop-color="white"/>
<stop offset="1" stop-color="white"/>
</linearGradient>
</defs>
</svg>
