<svg xmlns="http://www.w3.org/2000/svg" width="30" height="20" viewBox="0 0 40 40" fill="#fff" fill-rule="evenodd"><path d="M34.067 26l-1.358-1.561L31.363 26h-2.831l2.767-3.188-2.767-3.188h2.92l1.371 1.549 1.32-1.549h2.818l-2.755 3.175L37 26h-2.933zm-10.976 0V15.955h5.441v2.239h-3.137v1.43h3.137v2.154h-3.137v1.977h3.137V26h-5.441z"/><path d="M20.696 15.955v3.967h-.027c-.53-.578-1.193-.778-1.961-.778-1.588 0-2.768 1.036-3.174 2.394-.468-1.497-1.69-2.422-3.519-2.422-1.486 0-2.643.645-3.247 1.681v-1.302H5.718v-1.38h3.327v-2.161H3v9.693h2.718v-4.075h2.724c-.082.302-.139.617-.139.958 0 2.022 1.63 3.441 3.711 3.441 1.75 0 2.903-.779 3.513-2.197h-2.329c-.315.427-.554.553-1.184.553-.73 0-1.36-.603-1.36-1.319h4.755C15.616 24.614 16.923 26 18.734 26c.782 0 1.498-.364 1.935-.979h.027V26h2.395V15.955h-2.395zm-9.966 5.648c.151-.616.655-1.018 1.284-1.018.693 0 1.171.39 1.297 1.018H10.73zm8.512 2.57c-.883 0-1.432-.78-1.432-1.593 0-.87.477-1.707 1.432-1.707.99 0 1.384.837 1.384 1.707 0 .825-.418 1.593-1.384 1.593z"/></svg>
