<svg width="40" height="40" viewBox="0 0 40 40" fill="none" xmlns="http://www.w3.org/2000/svg">
<rect x="8" y="14" width="24" height="12" rx="4" fill="white"/>
<path d="M27.2188 19.2539C26.5408 18.7919 25.6168 18.9659 25.1548 19.6439C24.6928 20.322 24.8668 21.246 25.5448 21.708C26.0488 22.05 26.7148 22.05 27.2188 21.708V21.888H28.0648V19.0679H27.2188V19.2539ZM26.4508 21.21C26.0488 21.186 25.7428 20.844 25.7668 20.448C25.7908 20.046 26.1328 19.74 26.5288 19.764C26.9128 19.782 27.2188 20.1 27.2188 20.49C27.2068 20.892 26.8648 21.216 26.4508 21.21Z" fill="#002D18"/>
<path d="M15.6503 17.8198H14.7682V21.8938H15.6503V17.8198Z" fill="#002D18"/>
<path d="M23.3964 18.9959C23.0604 18.9779 22.7364 19.1219 22.5264 19.3919V19.0739H21.6864V21.8939H22.5384V20.4119C22.5144 20.0819 22.7604 19.7999 23.0844 19.7759C23.1144 19.7759 23.1444 19.7759 23.1684 19.7759C23.5404 19.7759 23.7504 19.9979 23.7504 20.4059V21.8939H24.5904V20.0999C24.5964 19.4459 24.0744 18.9959 23.3964 18.9959Z" fill="#002D18"/>
<path d="M18.3203 19.2539C17.6423 18.7919 16.7183 18.9659 16.2563 19.6439C15.7943 20.322 15.9683 21.246 16.6463 21.708C17.1503 22.05 17.8163 22.05 18.3203 21.708V21.888H19.1663V19.0679H18.3203V19.2539ZM17.5523 21.21C17.1503 21.186 16.8443 20.85 16.8683 20.448C16.8923 20.046 17.2283 19.74 17.6303 19.764C18.0143 19.782 18.3203 20.1 18.3203 20.49C18.3083 20.892 17.9663 21.216 17.5523 21.21Z" fill="#002D18"/>
<path d="M20.4679 19.4398V19.0738H19.6039V21.8938H20.4679V20.5738C20.4679 20.1298 20.9479 19.8898 21.2839 19.8898C21.2899 19.8898 21.2899 19.8898 21.2959 19.8898V19.0738C20.9779 19.0678 20.6719 19.1998 20.4679 19.4398Z" fill="#002D18"/>
<path d="M28.9585 20.8918C28.6645 20.8918 28.4305 21.1318 28.4305 21.4198C28.4305 21.7138 28.6705 21.9478 28.9585 21.9478C29.2525 21.9478 29.4865 21.7078 29.4865 21.4198C29.4865 21.1258 29.2525 20.8918 28.9585 20.8918Z" fill="#002D18"/>
<path d="M14.1624 17.8198H13.2504C13.2504 18.5638 12.9024 19.2658 12.3024 19.7098L11.9424 19.9798L13.3464 21.8938H14.4984L13.2084 20.1298C13.8204 19.5178 14.1624 18.6838 14.1624 17.8198Z" fill="#002D18"/>
<path d="M11.8286 17.8198H10.9106V21.8938H11.8286V17.8198Z" fill="#002D18"/>
</svg>
