<svg width="40" height="40" viewBox="0 0 40 40" fill="none" xmlns="http://www.w3.org/2000/svg">
<path fill-rule="evenodd" clip-rule="evenodd" d="M32.3204 23.0661C32.46 23.0661 32.5702 23.1808 32.5702 23.3328C32.5702 23.4874 32.46 23.6012 32.3204 23.6012C32.1791 23.6012 32.069 23.4874 32.069 23.3328C32.0688 23.1808 32.1791 23.0661 32.3204 23.0661V23.0127C32.1504 23.0127 32.0068 23.1487 32.0068 23.3328C32.0068 23.5188 32.1504 23.6548 32.3204 23.6548C32.4887 23.6548 32.6322 23.5188 32.6322 23.3328C32.6322 23.1487 32.4887 23.0127 32.3204 23.0127V23.0661Z" fill="white"/>
<path fill-rule="evenodd" clip-rule="evenodd" d="M32.3287 23.1962H32.2553L32.2553 23.3107H32.2553V23.3585H32.2553L32.2554 23.5189H32.2014V23.1487H32.337C32.4211 23.1487 32.4629 23.1808 32.4629 23.2541C32.4629 23.3202 32.4226 23.3489 32.3704 23.3558L32.4717 23.5189H32.4112L32.3174 23.3585H32.2553L32.2553 23.3107H32.3196C32.3655 23.3107 32.4062 23.3074 32.4062 23.2504C32.4062 23.2048 32.3662 23.1962 32.3287 23.1962ZM25.0053 12.4019C29.0403 12.4019 32.3114 15.8038 32.3114 20.0004C32.3114 24.1968 29.0404 27.5987 25.0053 27.5987C23.3039 27.6014 21.6554 26.9839 20.3463 25.8536C19.0804 26.9483 17.4491 27.5987 15.6739 27.5987C11.6389 27.5987 8.36768 24.1968 8.36768 20.0004C8.36768 15.8039 11.6389 12.4019 15.6739 12.4019C17.449 12.4019 19.0803 13.0521 20.3463 14.147C21.6553 13.0167 23.3039 12.3992 25.0053 12.4019ZM25.0052 12.9601C28.7439 12.9601 31.7748 16.1122 31.7748 20.0004C31.7748 23.8887 28.7438 27.0405 25.0052 27.0404C23.3827 27.0404 21.9069 26.45 20.7409 25.4602C21.63 24.5674 22.3088 23.4493 22.6731 22.1856H22.1108C21.7584 23.3092 21.1391 24.3006 20.3343 25.0959C19.524 24.2935 18.9175 23.2948 18.5693 22.189H18.0066C18.3658 23.4296 19.0242 24.554 19.9191 25.4552C18.7563 26.435 17.2869 27.0404 15.6738 27.0404C11.9352 27.0404 8.90432 23.8885 8.90432 20.0003C8.90432 16.1121 11.9352 12.96 15.6738 12.96C17.2869 12.96 18.7561 13.5656 19.9191 14.5451C19.0242 15.4465 18.3659 16.571 18.0066 17.8117L18.5693 17.8115C18.9177 16.7058 19.5241 15.707 20.3343 14.9045C21.1391 15.7 21.7584 16.6914 22.1108 17.815H22.6731C22.309 16.5513 21.63 15.4331 20.7409 14.5403C21.9069 13.5505 23.3827 12.9601 25.0052 12.9601Z" fill="white"/>
<path fill-rule="evenodd" clip-rule="evenodd" d="M27.2668 19.0447L26.7993 21.65H27.4874L27.6992 20.4574C27.8917 19.717 28.1878 19.7209 28.3605 19.7232C28.3697 19.7233 28.3785 19.7234 28.387 19.7234L28.5722 19.0447C28.2285 19.0447 28.0253 19.173 27.9197 19.3015L27.8578 19.0447H27.2668ZM18.4227 18.3828H17.7415L17.2702 20.8528C17.1389 21.561 17.6544 21.6611 17.8114 21.6611C17.9686 21.6611 18.1694 21.6337 18.3179 21.5339L18.3616 21.0073C17.9686 21.0708 17.951 20.8893 17.986 20.6894L18.1781 19.636H18.5274L18.6495 19.073H18.2829L18.4227 18.3828ZM19.7588 19.0366C20.9552 19.0366 20.7717 20.0717 20.6932 20.4896H19.2085C19.1324 21.0631 19.5421 21.0623 19.8137 21.0618C19.8217 21.0618 19.8296 21.0618 19.8373 21.0618C20.1081 21.0618 20.5011 21.0254 20.6058 20.9982L20.5011 21.5339C20.3351 21.6248 19.9159 21.6611 19.6277 21.6519C18.4489 21.6519 18.4665 20.4988 18.4926 20.3351C18.4934 20.3301 18.4943 20.3242 18.4954 20.3174C18.5283 20.1033 18.6923 19.0366 19.7588 19.0366ZM20.0995 20.0172H19.2524C19.3312 19.6902 19.5231 19.5448 19.7939 19.5449C20.0646 19.5449 20.1432 19.7628 20.0995 20.0172Z" fill="white"/>
<path fill-rule="evenodd" clip-rule="evenodd" d="M17.2525 19.1274L17.0955 19.6541C16.9033 19.5995 16.5802 19.5995 16.423 19.618C16.1697 19.6906 16.2745 19.9358 16.4142 19.9992C16.554 20.063 16.7724 20.1899 16.9033 20.2808C17.0341 20.3626 17.1944 20.5356 17.1389 20.9165C17.0306 21.6624 16.2852 21.6545 16.0738 21.6523C16.0638 21.6522 16.055 21.6521 16.0475 21.6521C15.8116 21.6521 15.5586 21.6521 15.2442 21.5611L15.3401 21.0255C15.6219 21.1232 15.9814 21.1027 16.1565 21.0927C16.193 21.0907 16.2215 21.089 16.2396 21.089C16.4681 21.089 16.4998 20.7884 16.327 20.6986C16.2787 20.6734 16.2294 20.6439 16.1746 20.6112C16.071 20.5493 15.9481 20.4759 15.7767 20.3987C15.6145 20.3257 15.4449 20.1264 15.541 19.6451C15.6645 19.0262 16.4605 19.0273 16.5754 19.0275C16.5771 19.0275 16.5787 19.0275 16.5801 19.0275C16.5922 19.0275 16.6068 19.027 16.6237 19.0265C16.7411 19.0231 16.97 19.0163 17.2525 19.1274ZM13.2446 18.5098L12.6771 21.6519H11.9697L12.3715 19.4362L11.4196 21.6519H10.7734L10.5898 19.3817L10.1708 21.6519H9.48975L10.0748 18.5098H11.1663L11.2972 20.4169L12.127 18.5098H13.2446ZM13.323 19.6812L13.4279 19.1184C13.7972 19.043 14.0223 19.0364 14.2078 19.031C14.2461 19.0299 14.2827 19.0288 14.3185 19.0272C15.4623 19.0272 15.3491 19.881 15.2792 20.2351L15.0084 21.6517H14.371L14.2836 21.5065C14.1613 21.5972 14.0653 21.6428 13.7159 21.661C13.3665 21.6792 12.9214 21.4068 13 20.8707C13.1673 19.9214 14.1168 19.951 14.474 19.9621C14.5268 19.9638 14.5667 19.965 14.5892 19.9626C14.6602 19.6098 14.4531 19.6056 14.2384 19.6013C14.2156 19.6008 14.1927 19.6004 14.17 19.5995C13.9916 19.5928 13.693 19.6327 13.4864 19.6604C13.4201 19.6693 13.3633 19.6769 13.323 19.6812ZM14.4327 20.4817C14.4489 20.4847 14.4635 20.4875 14.4764 20.4896L14.424 20.7712C14.38 21.0075 14.0575 21.1582 13.8389 21.0708C13.6118 20.9799 13.6728 20.7075 13.8912 20.5531C14.0849 20.4161 14.306 20.4578 14.4327 20.4817Z" fill="white"/>
<path fill-rule="evenodd" clip-rule="evenodd" d="M23.9415 19.109C24.1685 19.109 24.2905 19.1269 24.4653 19.2359L24.9109 18.7728C24.7363 18.5729 24.5352 18.3765 23.9764 18.355C23.5052 18.3369 22.697 18.6947 22.4395 19.6718C22.0904 20.9979 22.8588 21.6516 23.566 21.6516C23.9416 21.6516 24.1686 21.5971 24.3956 21.4882L24.1947 20.8525C23.4962 21.0976 22.9985 20.7253 23.1119 19.9716C23.2079 19.3346 23.7145 19.109 23.9415 19.109ZM30.1758 19.2509C30.2079 19.2859 30.2384 19.3191 30.2724 19.345L30.4557 18.3462H31.1717L30.578 21.6516H29.8447L29.757 21.4429C29.6174 21.5427 29.3905 21.6427 29.1632 21.6516C28.6743 21.6516 28.2257 20.9334 28.4473 20.1441C28.7615 19.0266 29.3025 19.0321 29.6778 19.0358C29.699 19.0361 29.7197 19.0363 29.7398 19.0363C29.979 19.0363 30.084 19.1508 30.1758 19.2509ZM29.9839 19.7719C30.0594 19.8766 30.0976 20.1716 30.0277 20.4077C29.9053 20.7254 29.7483 20.9344 29.4949 20.9344C29.2591 20.9344 29.0497 20.6527 29.1456 20.2805C29.2926 19.7111 29.7744 19.4814 29.9839 19.7719Z" fill="white"/>
<path fill-rule="evenodd" clip-rule="evenodd" d="M24.8498 19.6809L24.9545 19.118C25.3238 19.0427 25.5489 19.0361 25.7344 19.0307C25.7727 19.0295 25.8093 19.0285 25.8451 19.0269C26.989 19.0269 26.8756 19.8807 26.8059 20.2348L26.5348 21.6513H25.8978L25.8103 21.5062C25.688 21.5968 25.5921 21.6424 25.2427 21.6606C24.8933 21.6788 24.448 21.4065 24.5267 20.8703C24.6941 19.921 25.6435 19.9506 26.0007 19.9618C26.0535 19.9634 26.0933 19.9647 26.1158 19.9623C26.1871 19.6094 25.9799 19.6053 25.7651 19.601C25.7422 19.6005 25.7193 19.6001 25.6966 19.5992C25.5181 19.5924 25.2192 19.6325 25.0127 19.6601C24.9466 19.669 24.89 19.6765 24.8498 19.6809ZM25.9588 20.4815C25.9749 20.4845 25.9896 20.4873 26.0024 20.4893L25.95 20.771C25.9062 21.0073 25.5837 21.158 25.3651 21.0705C25.1378 20.9796 25.1988 20.7073 25.4172 20.5529C25.6109 20.4159 25.832 20.4576 25.9588 20.4815Z" fill="white"/>
<path fill-rule="evenodd" clip-rule="evenodd" d="M20.7129 21.6518L21.1757 19.0728H21.7608L21.8219 19.327C21.9266 19.1997 22.1274 19.0728 22.4678 19.0728L22.2933 19.7538C22.1274 19.7538 21.8042 19.6994 21.6035 20.4712L21.3941 21.6518H20.7129Z" fill="white"/>
</svg>
