<svg width="40" height="40" viewBox="0 0 40 40" fill="none" xmlns="http://www.w3.org/2000/svg">
<path d="M23.844 17H22.1337C22.0182 17 21.9192 17.0825 21.8972 17.198L21.2043 21.5865C21.1933 21.6745 21.2593 21.7515 21.3473 21.7515H22.2272C22.3097 21.7515 22.3812 21.691 22.3922 21.6085L22.5902 20.3656C22.6067 20.2501 22.7057 20.1676 22.8266 20.1676H23.3656C24.493 20.1676 25.1419 19.6232 25.3124 18.5398C25.3894 18.0669 25.3179 17.6929 25.0924 17.4345C24.8504 17.154 24.416 17 23.844 17ZM24.042 18.6003C23.9485 19.2162 23.4811 19.2163 23.0246 19.2163H22.7662L22.9476 18.0669C22.9586 17.9954 23.0191 17.9459 23.0906 17.9459H23.2116C23.5196 17.9459 23.811 17.9459 23.965 18.1219C24.0475 18.2319 24.075 18.3858 24.042 18.6003Z" fill="white"/>
<path d="M11.6409 17H9.9306C9.81511 17 9.71612 17.0825 9.69412 17.198L9.0012 21.5865C8.9902 21.6745 9.05619 21.7515 9.14418 21.7515H9.96359C10.0791 21.7515 10.1781 21.669 10.2001 21.5535L10.387 20.3711C10.4035 20.2556 10.5025 20.1731 10.6235 20.1731H11.1625C12.2898 20.1731 12.9388 19.6287 13.1092 18.5453C13.1862 18.0724 13.1147 17.6984 12.8893 17.4399C12.6418 17.154 12.2128 17 11.6409 17ZM11.8389 18.6003C11.7454 19.2162 11.2779 19.2163 10.8215 19.2163H10.563L10.7445 18.0669C10.7555 17.9954 10.816 17.9459 10.8875 17.9459H11.0085C11.3164 17.9459 11.6079 17.9459 11.7619 18.1219C11.8444 18.2319 11.8719 18.3858 11.8389 18.6003Z" fill="white"/>
<path d="M16.7551 18.5837H15.9357C15.8642 18.5837 15.8037 18.6332 15.7927 18.7047L15.7542 18.9357L15.6992 18.8532C15.5232 18.5947 15.1273 18.5122 14.7313 18.5122C13.8239 18.5122 13.054 19.1996 12.9 20.162C12.823 20.6405 12.933 21.1024 13.2025 21.4214C13.4499 21.7128 13.8074 21.8393 14.2364 21.8393C14.9678 21.8393 15.3692 21.3719 15.3692 21.3719L15.3307 21.5974C15.3197 21.6853 15.3857 21.7623 15.4737 21.7623H16.2106C16.3261 21.7623 16.4251 21.6798 16.4471 21.5644L16.8926 18.7597C16.9091 18.6607 16.8431 18.5837 16.7551 18.5837ZM15.6112 20.1785C15.5342 20.646 15.1602 20.9594 14.6873 20.9594C14.4508 20.9594 14.2583 20.8824 14.1374 20.7395C14.0164 20.5965 13.9724 20.393 14.0109 20.162C14.0824 19.7001 14.4618 19.3756 14.9293 19.3756C15.1602 19.3756 15.3527 19.4526 15.4737 19.6011C15.6002 19.7441 15.6497 19.953 15.6112 20.1785Z" fill="white"/>
<path d="M28.9582 18.5837H28.1388C28.0673 18.5837 28.0068 18.6332 27.9958 18.7047L27.9573 18.9357L27.9023 18.8532C27.7263 18.5947 27.3304 18.5122 26.9344 18.5122C26.027 18.5122 25.2571 19.1996 25.1031 20.162C25.0261 20.6405 25.1361 21.1024 25.4056 21.4214C25.6531 21.7128 26.0105 21.8393 26.4395 21.8393C27.1709 21.8393 27.5723 21.3719 27.5723 21.3719L27.5339 21.5974C27.5229 21.6853 27.5888 21.7623 27.6768 21.7623H28.4138C28.5292 21.7623 28.6282 21.6798 28.6502 21.5644L29.0957 18.7597C29.1122 18.6607 29.0462 18.5837 28.9582 18.5837ZM27.8143 20.1785C27.7373 20.646 27.3634 20.9594 26.8904 20.9594C26.6539 20.9594 26.4615 20.8824 26.3405 20.7395C26.2195 20.5965 26.1755 20.393 26.214 20.162C26.2855 19.7001 26.6649 19.3756 27.1324 19.3756C27.3634 19.3756 27.5558 19.4526 27.6768 19.6011C27.8033 19.7441 27.8528 19.953 27.8143 20.1785Z" fill="white"/>
<path d="M21.1163 18.584H20.2914C20.2144 18.584 20.1374 18.6225 20.0934 18.6885L18.955 20.3603L18.4711 18.7545C18.4436 18.6555 18.3501 18.584 18.2456 18.584H17.4372C17.3382 18.584 17.2722 18.6775 17.2997 18.771L18.2071 21.4327L17.3547 22.637C17.2887 22.7305 17.3547 22.8625 17.4702 22.8625H18.2951C18.3721 22.8625 18.4436 22.824 18.4931 22.758L21.2318 18.804C21.3033 18.7105 21.2318 18.584 21.1163 18.584Z" fill="white"/>
<path d="M29.9263 17.121L29.2224 21.5865C29.2114 21.6745 29.2774 21.7515 29.3654 21.7515H30.0693C30.1848 21.7515 30.2838 21.669 30.3058 21.5535L30.9987 17.165C31.0097 17.077 30.9437 17 30.8557 17H30.0638C29.9978 17 29.9373 17.0495 29.9263 17.121Z" fill="white"/>
</svg>
