<svg width="40" height="40" viewBox="0 0 40 40" fill="none" xmlns="http://www.w3.org/2000/svg">
<path d="M23.2831 18.243H22.6811L22.8651 17.349H23.3758C23.5428 17.349 23.6646 17.3727 23.7408 17.4227C23.8182 17.4721 23.856 17.5501 23.856 17.658C23.856 17.6793 23.8523 17.7006 23.8511 17.7226C23.8462 17.7457 23.8438 17.7713 23.8383 17.7987C23.8054 17.9499 23.7457 18.0614 23.6555 18.1339C23.5635 18.2064 23.4398 18.243 23.2831 18.243ZM18.4616 19.5075C18.6054 19.5075 18.7218 19.4576 18.8132 19.3582C18.9046 19.2595 18.9692 19.1096 19.0094 18.9109C19.0155 18.8798 19.0204 18.8475 19.0234 18.8146C19.0259 18.7829 19.0277 18.7531 19.0277 18.7257C19.0277 18.6105 18.9984 18.5203 18.9387 18.4563C18.8796 18.3923 18.7961 18.36 18.6877 18.36C18.5444 18.36 18.428 18.4106 18.3366 18.5111C18.2446 18.6123 18.1794 18.764 18.138 18.967C18.1325 18.9981 18.1276 19.0298 18.124 19.0596C18.1209 19.0907 18.1197 19.1199 18.1203 19.1468C18.1203 19.2619 18.1502 19.3509 18.2099 19.4137C18.2684 19.4765 18.3519 19.5075 18.4616 19.5075ZM24.9633 19.5307C25.1296 19.5837 25.3441 19.3978 25.4386 19.1157C25.5355 18.8335 25.4764 18.5617 25.3088 18.5099C25.1437 18.4575 24.9285 18.6422 24.8347 18.9249C24.736 19.2077 24.7963 19.4795 24.9633 19.5307ZM20.3812 22.0573H21.2222C21.291 22.0671 21.33 22.0397 21.3349 21.9751L21.3922 21.7703H20.4598L20.3812 22.0573ZM22.9699 23.267H23.4398L23.5598 22.8417H23.09L22.9699 23.267ZM23.1613 22.6064C23.1613 22.6064 23.466 22.4565 23.6732 22.4437C23.7347 22.2182 23.7944 22.0208 23.7944 22.0208H23.3228L23.1613 22.6064ZM23.3971 21.7575C23.3971 21.7575 23.6707 21.6521 23.9078 21.6222C23.9602 21.4266 24.0278 21.1975 24.0278 21.1975H23.5574L23.3971 21.7575ZM20.5189 21.5436C20.5189 21.5436 20.6737 21.4321 20.9321 21.4278C21.1911 21.4242 21.486 21.4278 21.486 21.4278L21.561 21.1542H20.6304L20.5189 21.5436ZM30.9659 14.5749L28.5118 25.4335C28.3528 26.1307 27.6763 26.6956 26.9786 26.7304H21.5275C20.8199 26.7194 20.38 26.1411 20.5415 25.4286L20.7322 24.584H20.3044L20.1137 25.4286C19.9522 26.1404 20.3915 26.7194 21.0997 26.7304H15.3043C14.5974 26.7194 14.1568 26.1411 14.3189 25.4286L14.8886 22.9081H14.3889L13.8191 25.4286C13.657 26.1404 14.0976 26.7194 14.8052 26.7304H10.014C9.44486 26.7224 9.04875 26.344 9 25.826V25.6249C9.00488 25.5615 9.01341 25.4963 9.02864 25.4305L11.4833 14.5712C11.6478 13.8515 12.5693 13.2695 13.2884 13.2695L18.0502 13.2707C17.3354 13.2854 16.4353 13.8613 16.2738 14.5712L15.8131 16.611H16.3122L16.7735 14.5712C16.935 13.8607 17.8345 13.2854 18.5493 13.2707C18.5591 13.2701 18.5682 13.2695 18.5774 13.2695L22.2667 13.2714H24.3411C24.3368 13.2714 24.3325 13.272 24.3289 13.272C23.6159 13.2939 22.728 13.8655 22.5659 14.5706L22.1046 16.6104H22.5324L22.9937 14.5706C23.1552 13.8655 24.0431 13.2939 24.7561 13.272C24.7597 13.272 24.7634 13.2714 24.7689 13.2714C24.7689 13.2714 24.7695 13.2714 24.7701 13.2714L29.9591 13.2726C30.6776 13.272 31.1298 13.8558 30.9659 14.5749ZM14.0824 18.8226L14.5193 16.7152H13.863L13.4303 18.7982C13.3926 18.9822 13.3079 19.123 13.1781 19.2223C13.0483 19.3229 12.8813 19.3722 12.6783 19.3722C12.501 19.3722 12.3743 19.3217 12.2963 19.2199C12.2426 19.1516 12.2164 19.0645 12.217 18.9578C12.2164 18.9097 12.2213 18.8561 12.2347 18.7976L12.6662 16.7146H12.0062L11.5692 18.8219C11.5479 18.9243 11.5375 19.02 11.5375 19.109C11.5375 19.3235 11.6003 19.5014 11.7252 19.641C11.9056 19.8378 12.1884 19.936 12.5747 19.936C12.9849 19.936 13.32 19.8397 13.579 19.6483C13.8405 19.4539 14.0093 19.1803 14.0824 18.8226ZM16.1477 18.1168C16.0587 18.0023 15.9173 17.945 15.7211 17.945C15.5048 17.945 15.3213 18.0254 15.1696 18.1869L15.1032 18.2643L15.1562 17.9931H14.69L14.314 19.8744H14.7936L15.0075 18.7939C15.0349 18.658 15.091 18.5514 15.1757 18.4746C15.2604 18.3984 15.364 18.36 15.4871 18.36C15.5876 18.36 15.6571 18.3886 15.6931 18.4465C15.7302 18.5038 15.7369 18.5934 15.7132 18.7135L15.481 19.875H15.9606L16.2165 18.5934C16.2586 18.3899 16.2348 18.232 16.1477 18.1168ZM25.2204 19.7574L25.3082 19.8592L25.9042 19.8744L26.2942 18.101L25.7768 18.1467L25.5587 18.2972C25.3301 18.1187 25.1211 18.0078 24.7189 18.1949C24.1698 18.449 23.7109 20.4009 25.2204 19.7574ZM25.6818 21.0329C25.6117 21.0329 25.5775 21.0067 25.5818 20.9506L25.5568 20.7325H24.9633L24.9834 21.2115C24.9919 21.3492 25.0766 21.4114 25.243 21.4022H25.6787L25.786 21.0329H25.6818ZM21.7152 19.8744H22.3435L22.5677 18.7726H23.2941C23.586 18.7726 23.8401 18.6836 24.0559 18.5075C24.2698 18.3301 24.4081 18.0973 24.4678 17.8073C24.48 17.7542 24.4873 17.703 24.494 17.6531C24.4983 17.6025 24.5013 17.555 24.5013 17.5135V17.5068C24.5013 17.2874 24.4325 17.1192 24.2941 17.0022C24.1546 16.8864 23.9541 16.8267 23.6945 16.8267H22.3398L21.7152 19.8744ZM19.6596 19.8744H20.1386L20.3531 18.7939C20.38 18.658 20.436 18.5514 20.5207 18.4746C20.606 18.3984 20.7096 18.36 20.8327 18.36C20.9327 18.36 21.0003 18.3886 21.0387 18.4465C21.0759 18.5038 21.0814 18.5934 21.0576 18.7135L20.8254 19.875H21.305L21.561 18.5934C21.603 18.3905 21.578 18.232 21.4921 18.1175C21.4031 18.0029 21.2612 17.9456 21.0661 17.9456C20.8504 17.9456 20.6658 18.026 20.5146 18.1875L20.4494 18.2649L20.5024 17.9937H20.0356L19.6596 19.8744ZM19.1356 20.9793L19.2666 20.7483H18.6395L18.4055 21.0993C18.3793 21.1542 18.3238 21.1816 18.2404 21.1816H18.1502L18.0484 21.5509H18.5146C18.6675 21.5601 18.7943 21.4875 18.8973 21.3327H19.7919L19.8876 20.9793H19.1356ZM17.3707 17.9937H16.854L16.4499 19.8738H16.9655L17.3707 17.9937ZM17.5377 17.3081H17.0161L16.9192 17.7652H17.4402L17.5377 17.3081ZM17.6236 19.2071C17.6242 19.4283 17.6925 19.602 17.8284 19.7318C17.9631 19.8592 18.1465 19.9232 18.3793 19.9232C18.6608 19.9232 18.9022 19.8354 19.1033 19.6581C19.305 19.4826 19.4348 19.2424 19.4945 18.942C19.503 18.8963 19.5097 18.85 19.5164 18.8012C19.5213 18.7537 19.5244 18.7092 19.5244 18.6708C19.5244 18.4471 19.4567 18.2704 19.322 18.14C19.1874 18.0102 19.0033 17.945 18.7705 17.945C18.4872 17.945 18.2446 18.0352 18.0441 18.215C17.843 18.3935 17.7132 18.6361 17.6511 18.942C17.6425 18.9853 17.6358 19.031 17.6303 19.0791C17.6261 19.1254 17.6236 19.1681 17.6236 19.2071ZM19.2422 23.4968H18.7169C18.5828 23.5059 18.5341 23.4645 18.5706 23.3737L18.7206 22.827H19.3659L19.4707 22.4431H18.826L18.9271 22.0726H19.5896L19.6944 21.6893H18.0466L17.943 22.0726H18.3366L18.2361 22.4419H17.8235L17.7193 22.827H18.1313L17.9399 23.5254C17.8802 23.7448 17.9454 23.8545 18.1374 23.8545H19.1459L19.2422 23.4968ZM21.8614 22.5376H21.4153L21.3727 22.6881C21.3727 22.7332 21.3367 22.757 21.2642 22.757H21.121L21.132 22.5248H20.5939L20.5536 23.5925C20.5512 23.7747 20.6408 23.86 20.8206 23.8533H21.4653L21.5537 23.5376H21.2855C21.1667 23.5376 21.1088 23.5047 21.1143 23.4426L21.1155 23.0452H21.4019C21.6189 23.0355 21.7529 22.9404 21.8035 22.757L21.8614 22.5376ZM21.8876 22.1811L22.2862 20.7373H21.2429C20.9613 20.7373 20.6499 20.9708 20.6499 20.9708L20.6749 20.7459H20.1234L19.3409 23.6333C19.3038 23.7716 19.3976 23.8387 19.6249 23.8387H20.216L20.302 23.5236H20.0692C20.0088 23.5236 19.9869 23.495 20.0027 23.4413L20.2794 22.4273H21.461C21.7127 22.4279 21.8547 22.3468 21.8876 22.1811ZM24.1101 23.6772L24.2253 23.2664H24.1028L24.6915 21.1968H24.8134L24.9371 20.7587C24.9371 20.7587 24.3904 20.7587 24.1582 20.7587C23.9255 20.7587 23.6043 20.9202 23.6043 20.9202L23.6317 20.7587H23.0016L22.8773 21.1968H22.9986L22.4099 23.2664H22.2892L22.1728 23.6772H23.3776L23.3264 23.8551H23.9364L23.9876 23.6772H24.1101ZM26.7104 21.5265H24.7908L24.6768 21.9239H25.3405L25.2345 22.2926H24.572L24.4575 22.6887H25.0693L24.5958 23.3737C24.5428 23.4371 24.4812 23.4694 24.4099 23.4694H24.2369L24.1266 23.8533H24.686C24.8335 23.863 24.945 23.8033 25.0157 23.6753L25.3179 23.2226L25.4069 23.6467C25.4154 23.785 25.5129 23.8478 25.7019 23.8381H26.0681L26.1772 23.4541H26.0736C26.0035 23.4541 25.9627 23.4322 25.9535 23.3859L25.8762 22.9191H25.5452L25.6988 22.6869H26.3783L26.4929 22.2908H25.8822L25.9877 21.9214H26.5983L26.7104 21.5265ZM28.4241 17.9937H27.8732L27.3284 19.2638L27.2973 17.9937H27.0078L26.6635 17.9986L26.828 20.0231C26.6897 20.2986 26.4478 20.919 26.0011 21.0561L25.9548 21.3785C26.4868 21.398 26.7068 21.1347 26.8189 21.0207C26.9304 20.9062 27.1199 20.6599 27.3174 20.237L28.4241 17.9937Z" fill="white"/>
</svg>
