<svg width="40" height="40" viewBox="0 0 40 40" fill="none" xmlns="http://www.w3.org/2000/svg">
<path d="M17.5981 17.115L14.9788 23.3584H13.2692L11.9795 18.3747C11.8995 18.0697 11.8345 17.9548 11.5946 17.8248C11.2047 17.6148 10.5649 17.4149 10 17.2949L10.04 17.115H12.7893C13.1392 17.115 13.4541 17.3499 13.5341 17.7498L14.2139 21.3639L15.8935 17.115H17.5981ZM24.2914 21.3189C24.2964 19.6693 22.012 19.5794 22.027 18.8445C22.032 18.6196 22.2469 18.3847 22.7118 18.3197C22.9418 18.2897 23.5816 18.2647 24.3064 18.5996L24.5914 17.2749C24.2014 17.135 23.7016 17 23.0817 17C21.4871 17 20.3624 17.8498 20.3524 19.0645C20.3424 19.9643 21.1522 20.4641 21.7671 20.7641C22.3969 21.069 22.6068 21.2689 22.6068 21.5389C22.6018 21.9588 22.107 22.1437 21.6421 22.1487C20.8323 22.1637 20.3574 21.9288 19.9825 21.7538L19.6876 23.1235C20.0625 23.2984 20.7623 23.4484 21.4821 23.4534C23.1767 23.4584 24.2864 22.6186 24.2914 21.3189ZM28.5054 23.3584H30L28.7003 17.115H27.3207C27.0107 17.115 26.7508 17.2949 26.6308 17.5749L24.2064 23.3634H25.901L26.2359 22.4286H28.3104L28.5054 23.3584ZM26.7008 21.149L27.5506 18.8045L28.0405 21.149H26.7008ZM19.9125 17.115L18.5779 23.3584H16.9633L18.2979 17.115H19.9125Z" fill="white"/>
</svg>
